<svg width="25" height="24" viewBox="0 0 25 24" fill="currentColor" xmlns="http://www.w3.org/2000/svg">
<path d="M8.69748 14.745C8.93176 14.9122 9.21243 15.0019 9.50022 15.0016C9.78801 15.0013 10.0685 14.9111 10.3025 14.7435C10.5364 14.5687 10.7141 14.3294 10.814 14.055L11.3345 12.4545C11.4593 12.0775 11.6705 11.7348 11.9513 11.4538C12.232 11.1728 12.5745 10.9612 12.9515 10.836L14.5805 10.3065C14.8537 10.2085 15.0892 10.0272 15.2537 9.78808C15.4182 9.54898 15.5034 9.26422 15.4972 8.97406C15.4911 8.6839 15.3939 8.403 15.2195 8.17106C15.045 7.93913 14.8021 7.76788 14.525 7.68153L12.9215 7.16253C12.5441 7.03788 12.2011 6.82675 11.9199 6.54601C11.6386 6.26526 11.4268 5.92265 11.3015 5.54553L10.772 3.91953C10.6759 3.65102 10.499 3.41887 10.2655 3.25502C10.0321 3.09117 9.75367 3.00366 9.46848 3.00453C9.17921 3.0033 8.89687 3.093 8.66135 3.26096C8.42583 3.42892 8.24905 3.66664 8.15598 3.94053L7.62198 5.57553C7.49658 5.94147 7.29004 6.27431 7.01781 6.54914C6.74558 6.82397 6.41472 7.03366 6.04998 7.16253L4.42398 7.68903C4.15234 7.78502 3.91742 7.96337 3.75194 8.19921C3.58647 8.43505 3.49869 8.71663 3.50083 9.00473C3.50298 9.29282 3.59494 9.57307 3.76392 9.80642C3.93289 10.0398 4.17044 10.2146 4.44348 10.3065L6.04398 10.827C6.42186 10.9533 6.76512 11.1658 7.04658 11.4478C7.32803 11.7298 7.53993 12.0734 7.66548 12.4515L8.19348 14.0715C8.28798 14.3415 8.46498 14.577 8.69898 14.7435M16.304 20.775C16.5073 20.9196 16.7505 20.9972 17 20.997C17.2519 20.9945 17.4967 20.9137 17.7007 20.7659C17.9047 20.6181 18.0576 20.4106 18.1385 20.172L18.5105 19.029C18.59 18.792 18.725 18.5745 18.9005 18.3975C19.076 18.2205 19.2935 18.087 19.5305 18.009L20.6885 17.631C20.928 17.5489 21.1354 17.3931 21.281 17.186C21.4266 16.9788 21.503 16.7309 21.4991 16.4778C21.4953 16.2246 21.4115 15.9791 21.2597 15.7765C21.1079 15.5738 20.8959 15.4244 20.654 15.3495L19.508 14.976C19.271 14.8967 19.0557 14.7636 18.8787 14.5871C18.7018 14.4107 18.5681 14.1957 18.488 13.959L18.11 12.798C18.0287 12.5596 17.8744 12.3528 17.669 12.207C17.4635 12.0611 17.2174 11.9836 16.9655 11.9854C16.7136 11.9873 16.4687 12.0683 16.2654 12.2171C16.0621 12.3659 15.9108 12.5749 15.833 12.8145L15.4625 13.9575C15.3861 14.1925 15.2564 14.4067 15.0837 14.5833C14.9109 14.76 14.6997 14.8944 14.4665 14.976L13.3025 15.3555C13.1263 15.4168 12.9668 15.5183 12.8367 15.6519C12.7066 15.7856 12.6094 15.9478 12.5529 16.1256C12.4964 16.3033 12.4821 16.4918 12.5112 16.6761C12.5403 16.8604 12.612 17.0353 12.7205 17.187C12.869 17.397 13.079 17.5545 13.3205 17.637L14.465 18.0075C14.7027 18.0877 14.9186 18.2219 15.0956 18.3997C15.2726 18.5775 15.4059 18.7939 15.485 19.032L15.8645 20.193C15.9467 20.4277 16.0997 20.6311 16.3025 20.775" fill="currentColor"/>
</svg>
