<svg width="21" height="20" viewBox="0 0 21 20" fill="none" xmlns="http://www.w3.org/2000/svg">
<path d="M10.5 1V18M10.5 10H19.5M10.5 7H18.5M10.5 4H16.5M10.5 16H16.5M10.5 13H18.5M10.5 19C11.2832 19.0007 12.0631 18.8992 12.82 18.698C14.5833 18.2289 16.1625 17.235 17.348 15.8479C18.5335 14.4608 19.2694 12.7462 19.4581 10.9313C19.6469 9.11642 19.2795 7.28704 18.4047 5.68573C17.5299 4.08442 16.1891 2.78683 14.56 1.965C13.3468 1.35283 12.0108 1.02332 10.6521 1.00119C9.29338 0.979068 7.94731 1.26489 6.71484 1.83724C5.48238 2.40958 4.39551 3.25357 3.53578 4.30591C2.67605 5.35824 2.06578 6.5916 1.75074 7.91345C1.4357 9.2353 1.42407 10.6113 1.71673 11.9383C2.00939 13.2653 2.59874 14.5088 3.44056 15.5755C4.28239 16.6422 5.35483 17.5045 6.57745 18.0975C7.80007 18.6906 9.14112 18.9992 10.5 19Z" stroke="currentColor" stroke-width="2" stroke-linecap="round" stroke-linejoin="round"/>
</svg>
